<?xml version="1.0" encoding="UTF-8" standalone="no"?>
<svg width="286px" height="180px" viewBox="0 0 286 180" version="1.1" xmlns="http://www.w3.org/2000/svg" xmlns:xlink="http://www.w3.org/1999/xlink" xmlns:sketch="http://www.bohemiancoding.com/sketch/ns">
    <!-- Generator: Sketch 3.3.3 (12072) - http://www.bohemiancoding.com/sketch -->
    <title>card</title>
    <desc>Created with Sketch.</desc>
    <defs></defs>
    <g id="004---Credit-Card-Payment" stroke="none" stroke-width="1" fill="none" fill-rule="evenodd" sketch:type="MSPage">
        <g id="004--Credit-Card-Payment-HD-VISA" sketch:type="MSArtboardGroup" transform="translate(-757.000000, -299.000000)">
            <g id="card" sketch:type="MSLayerGroup" transform="translate(757.000000, 299.000000)">
                <rect id="Rectangle-1-Copy" fill="#0054A4" sketch:type="MSShapeGroup" x="0" y="0" width="286" height="180" rx="20"></rect>
                <g id="visa" transform="translate(188.000000, 20.000000)" sketch:type="MSShapeGroup">
                    <path d="M27.9077073,25.2438919 L31.852669,1.02088649 L38.1595065,1.02088649 L34.2145448,25.2438919 L27.9077073,25.2438919" id="Fill-2" fill="#FFFFFF"></path>
                    <path d="M57.0896548,1.61452973 C55.8421173,1.12825946 53.8821062,0.598702703 51.4391773,0.598702703 C45.204324,0.598702703 40.8149872,3.88622703 40.7787117,8.59264865 C40.7396022,12.0752432 43.9114421,14.0169514 46.3016582,15.1738811 C48.759324,16.3600432 49.584025,17.1189622 49.5749562,18.1803243 C49.557952,19.8021622 47.6138114,20.5453405 45.8006027,20.5453405 C43.2754871,20.5453405 41.9344268,20.1799351 39.8604879,19.2754162 L39.0488233,18.889773 L38.1674418,24.311827 C39.6371668,24.9869838 42.3634981,25.5716324 45.1929879,25.6031135 C51.8195033,25.6031135 56.124953,22.3555027 56.1759654,17.3292108 C56.1980708,14.5678703 54.5180612,12.4755027 50.8780405,10.7468541 C48.6743033,9.62477838 47.3219069,8.87991351 47.3377774,7.74322162 C47.338911,6.73582703 48.4798892,5.65816216 50.9505915,5.65816216 C53.0131944,5.62555676 54.5061583,6.09777297 55.6698087,6.58966486 L56.2354799,6.86681081 L57.0896548,1.61452973" id="Fill-3" fill="#FFFFFF"></path>
                    <path d="M73.266832,1.0444973 L68.3928771,1.0444973 C66.8812085,1.0444973 65.7509997,1.47398919 65.087838,3.05366486 L55.7225215,25.2517622 L62.3467698,25.2517622 C62.3467698,25.2517622 63.426533,22.2661189 63.6725263,21.6106378 C64.3952025,21.6106378 70.8312715,21.6230054 71.7494954,21.6230054 C71.9388082,22.4684973 72.5175159,25.2517622 72.5175159,25.2517622 L78.3703428,25.2517622 L73.266832,1.0444973 M65.4874354,16.6563027 C66.0100295,15.2632649 67.9995145,9.88505946 67.9995145,9.88505946 C67.9626722,9.94858378 68.5192746,8.4819027 68.8372521,7.57288649 L69.2629225,9.66244324 C69.2629225,9.66244324 70.4736177,15.4442811 70.7230118,16.6563027 L65.4874354,16.6563027" id="Fill-4" fill="#FFFFFF"></path>
                    <path d="M22.6182844,1.04112432 L16.444646,17.5552 L15.7843184,14.1979676 C14.6337046,10.3297297 11.0537651,6.13768649 7.0487221,4.03744865 L12.6946652,25.2230919 L19.3699259,25.2185946 L29.29978,1.04112432 L22.6182844,1.04112432" id="Fill-5" fill="#FFFFFF"></path>
                    <path d="M10.7153827,1.02425946 L0.545203284,1.02425946 L0.461882972,1.52627027 C8.37561224,3.53318919 13.6111886,8.37565405 15.7843184,14.1979676 L13.5737795,3.06771892 C13.1928866,1.53301622 12.08535,1.07822703 10.7153827,1.02425946" id="Fill-6" fill="#F39C12"></path>
                </g>
                <g id="4392-583-+-X-XXXX-XXXX" transform="translate(20.000000, 104.000000)" font-weight="normal" font-family="OCR A Std" fill="#FFFFFF" sketch:type="MSTextLayer">
                    <text id="4392-583" font-size="17.9163636">
                        <tspan x="0" y="14">4392 583</tspan>
                    </text>
                    <text id="X-XXXX-XXXX" opacity="0.277227146" font-size="17.9762846">
                        <tspan x="104" y="14">X XXXX XXXX</tspan>
                    </text>
                </g>
                <text id="NAME-ON-CARD" opacity="0.277227146" sketch:type="MSTextLayer" font-family="OCR A Std" font-size="11.9442424" font-weight="normal" fill="#FFFFFF">
                    <tspan x="20" y="155">NAME ON CARD</tspan>
                </text>
                <text id="MM/YY" opacity="0.277227146" sketch:type="MSTextLayer" font-family="OCR A Std" font-size="11.8901961" font-weight="normal" sketch:alignment="right" fill="#FFFFFF">
                    <tspan x="223.195294" y="155">MM/YY</tspan>
                </text>
            </g>
        </g>
    </g>
</svg>