<?xml version="1.0" encoding="UTF-8" standalone="no"?>
<svg width="22px" height="22px" viewBox="0 0 22 22" version="1.1" xmlns="http://www.w3.org/2000/svg" xmlns:xlink="http://www.w3.org/1999/xlink" xmlns:sketch="http://www.bohemiancoding.com/sketch/ns">
    <!-- Generator: Sketch 3.3.3 (12072) - http://www.bohemiancoding.com/sketch -->
    <title>info</title>
    <desc>Created with Sketch.</desc>
    <defs></defs>
    <g id="004---Credit-Card-Payment" stroke="none" stroke-width="1" fill="none" fill-rule="evenodd" sketch:type="MSPage">
        <g id="004--Credit-Card-Payment-HD-VISA" sketch:type="MSArtboardGroup" transform="translate(-663.000000, -448.000000)" fill="#E0E1E5">
            <g id="Group" sketch:type="MSLayerGroup" transform="translate(357.000000, 124.000000)">
                <path d="M316.999684,324.479225 C311.246293,324.475227 306.58117,329.187482 306.575489,334.995372 C306.58117,340.811888 311.246293,345.522881 316.999684,345.520777 C322.75518,345.523092 327.420092,340.811888 327.424511,334.995582 C327.420092,329.187482 322.75518,324.475227 316.999684,324.479225 L316.999684,324.479225 Z M318.039768,340.722041 L316.112573,340.722041 L316.112573,338.76707 L318.039768,338.76707 L318.039768,340.722041 L318.039768,340.722041 Z M318.713308,335.427776 C318.21273,335.755393 318.026091,336.134561 318.031141,336.534772 L318.031141,338.010837 L316.122041,338.019464 L316.122041,335.815571 C316.123514,335.162442 316.337507,334.716571 316.960126,334.312784 L318.031141,333.583694 C318.717938,333.115309 318.71415,332.170964 318.288269,331.74845 C317.911204,331.385062 317.279116,331.173174 316.601157,331.305946 C315.369385,331.558865 315.270069,332.471017 315.273015,333.334352 L315.273015,333.712889 L313.364546,333.712889 C313.367492,332.090375 313.546345,331.354762 314.396634,330.429776 C315.342662,329.386746 316.67859,329.219466 317.910363,329.47007 C319.143608,329.730144 320.610415,330.932458 320.612519,332.679118 C320.610415,334.433562 319.214097,335.098686 318.713308,335.427776 L318.713308,335.427776 Z" id="info" sketch:type="MSShapeGroup"></path>
            </g>
        </g>
    </g>
</svg>