<?xml version="1.0" encoding="UTF-8" standalone="no"?>
<svg width="23px" height="28px" viewBox="0 0 23 28" version="1.1" xmlns="http://www.w3.org/2000/svg" xmlns:xlink="http://www.w3.org/1999/xlink" xmlns:sketch="http://www.bohemiancoding.com/sketch/ns">
    <!-- Generator: Sketch 3.3.3 (12072) - http://www.bohemiancoding.com/sketch -->
    <title>lock</title>
    <desc>Created with Sketch.</desc>
    <defs></defs>
    <g id="004---Credit-Card-Payment" stroke="none" stroke-width="1" fill="none" fill-rule="evenodd" sketch:type="MSPage">
        <g id="004--Credit-Card-Payment-HD-VISA" sketch:type="MSArtboardGroup" transform="translate(-398.000000, -536.000000)">
            <g id="Group" sketch:type="MSLayerGroup" transform="translate(357.000000, 124.000000)">
                <g id="lock" transform="translate(40.000000, 410.000000)" sketch:type="MSShapeGroup">
                    <path d="M24,16.6363636 C24,15.5823864 23.1414931,14.7272727 22.0833333,14.7272727 L21.4444444,14.7272727 L21.4444444,10.9090909 C21.4444444,6.01704545 17.4114583,2 12.5,2 C7.58854167,2 3.55555556,6.01704545 3.55555556,10.9090909 L3.55555556,14.7272727 L2.91666667,14.7272727 C1.85850694,14.7272727 1,15.5823864 1,16.6363636 L1,28.0909091 C1,29.1448864 1.85850694,30 2.91666667,30 L22.0833333,30 C23.1414931,30 24,29.1448864 24,28.0909091 L24,16.6363636 Z M7.38888889,14.7272727 L7.38888889,10.9090909 C7.38888889,8.10511364 9.68489583,5.81818182 12.5,5.81818182 C15.3151042,5.81818182 17.6111111,8.10511364 17.6111111,10.9090909 L17.6111111,14.7272727 L7.38888889,14.7272727 Z" id="Path" fill="#E0E1E5"></path>
                    <path d="M15.6666842,19.5000209 C15.6666842,20.4765845 15.0625168,21.296898 14.2083491,21.726586 L15.6458508,26.1992476 C15.7083509,26.3750291 15.6666842,26.5898731 15.541684,26.7461232 C15.4166839,26.9023734 15.2083503,27.0000298 15.0000167,27.0000298 L11.0000119,27.0000298 C10.7916783,27.0000298 10.5833448,26.9023734 10.4583446,26.7461232 C10.3333445,26.5898731 10.2916777,26.3750291 10.3541778,26.1992476 L11.7916795,21.726586 C10.9375118,21.296898 10.3333445,20.4765845 10.3333445,19.5000209 C10.3333445,18.1133005 11.5208459,17.0000179 13.0000143,17.0000179 C14.4791827,17.0000179 15.6666842,18.1133005 15.6666842,19.5000209 L15.6666842,19.5000209 Z" id="Path" fill="#FFFFFF"></path>
                </g>
            </g>
        </g>
    </g>
</svg>